<svg xmlns="http://www.w3.org/2000/svg" width="20" height="20" viewBox="0 0 20 20" fill="none"><script xmlns=""/>
<path fill-rule="evenodd" clip-rule="evenodd" d="M3.8 8.4C3.8 5.85949 5.85949 3.8 8.4 3.8C10.9405 3.8 13 5.85949 13 8.4C13 10.9405 10.9405 13 8.4 13C5.85949 13 3.8 10.9405 3.8 8.4ZM8.4 2C4.86538 2 2 4.86538 2 8.4C2 11.9346 4.86538 14.8 8.4 14.8C9.84274 14.8 11.174 14.3226 12.2444 13.5172L12.2516 13.5244L12.2716 13.5444L12.2916 13.5643L12.3114 13.5842L12.3312 13.604L12.3509 13.6237L12.3705 13.6433L12.39 13.6628L12.4095 13.6823L12.4289 13.7017L12.4482 13.721L12.4675 13.7403L12.4867 13.7595L12.5058 13.7786L12.5248 13.7976L12.5438 13.8166L12.5627 13.8355L12.5815 13.8543L12.6003 13.8731L12.619 13.8917L12.6376 13.9104L12.6561 13.9289L12.6746 13.9474L12.693 13.9657L12.7113 13.9841L12.7295 14.0023L12.7477 14.0205L12.7658 14.0386L12.7839 14.0567L12.8018 14.0746L12.8197 14.0925L12.8376 14.1104L12.8553 14.1281L12.873 14.1458L12.8907 14.1635L12.9082 14.181L12.9257 14.1985L12.9431 14.2159L12.9605 14.2333L12.9778 14.2505L12.995 14.2678L13.0121 14.2849L13.0292 14.302L13.0462 14.319L13.0632 14.3359L13.08 14.3528L13.0968 14.3696L13.1136 14.3864L13.1303 14.403L13.1469 14.4197L13.1634 14.4362L13.1799 14.4527L13.1963 14.4691L13.2126 14.4854L13.2289 14.5017L13.2451 14.5179L13.2613 14.5341L13.2774 14.5502L13.2934 14.5662L13.3093 14.5821L13.3252 14.598L13.3411 14.6138L13.3568 14.6296L13.3725 14.6453L13.3881 14.6609L13.4037 14.6765L13.4192 14.692L13.4347 14.7074L13.45 14.7228L13.4653 14.7381L13.4806 14.7534L13.4958 14.7686L13.5109 14.7837L13.526 14.7988L13.541 14.8138L13.5559 14.8287L13.5708 14.8436L13.5856 14.8584L13.6004 14.8732L13.6151 14.8878L13.6297 14.9025L13.6443 14.9171L13.6588 14.9316L13.6732 14.946L13.6876 14.9604L13.7019 14.9747L13.7162 14.989L13.7304 15.0032L13.7446 15.0173L13.7586 15.0314L13.7727 15.0455L13.7866 15.0594L13.8006 15.0733L13.8144 15.0872L13.8282 15.101L13.8419 15.1147L13.8556 15.1284L13.8692 15.142L13.8828 15.1556L13.8963 15.1691L13.9097 15.1825L13.9231 15.1959L13.9364 15.2092L13.9497 15.2225L13.9629 15.2357L13.9761 15.2489L13.9892 15.262L14.0022 15.275L14.0152 15.288L14.0281 15.3009L14.041 15.3138L14.0538 15.3266L14.0666 15.3394L14.0793 15.3521L14.0919 15.3647L14.1045 15.3773L14.1171 15.3898L14.1295 15.4023L14.142 15.4148L14.1543 15.4271L14.1667 15.4395L14.1789 15.4517L14.1911 15.4639L14.2033 15.4761L14.2154 15.4882L14.2275 15.5002L14.2395 15.5122L14.2514 15.5242L14.2633 15.5361L14.2751 15.5479L14.2869 15.5597L14.2986 15.5714L14.3103 15.5831L14.322 15.5947L14.3335 15.6063L14.3451 15.6178L14.3565 15.6293L14.3679 15.6407L14.3793 15.6521L14.3906 15.6634L14.4019 15.6747L14.4131 15.6859L14.4243 15.6971L14.4354 15.7082L14.4465 15.7193L14.4575 15.7303L14.4684 15.7412L14.4794 15.7521L14.4902 15.763L14.501 15.7738L14.5118 15.7846L14.5225 15.7953L14.5332 15.806L14.5438 15.8166L14.5544 15.8272L14.5649 15.8377L14.5754 15.8482L14.5858 15.8586L14.5962 15.869L14.6065 15.8793L14.6168 15.8896L14.627 15.8998L14.6372 15.91L14.6473 15.9201L14.6574 15.9302L14.6675 15.9403L14.6775 15.9503L14.6874 15.9602L14.6973 15.9701L14.7072 15.98L14.717 15.9898L14.7268 15.9996L14.7365 16.0093L14.7462 16.019L14.7558 16.0286L14.7654 16.0382L14.7749 16.0477L14.7844 16.0572L14.7939 16.0667L14.8033 16.0761L14.8126 16.0854L14.822 16.0948L14.8312 16.104L14.8405 16.1133L14.8497 16.1225L14.8588 16.1316L14.8679 16.1407L14.877 16.1498L14.886 16.1588L14.895 16.1677L14.9039 16.1767L14.9128 16.1856L14.9216 16.1944L14.9304 16.2032L14.9392 16.212L14.9479 16.2207L14.9566 16.2294L14.9652 16.238L14.9738 16.2466L14.9824 16.2552L14.9909 16.2637L14.9994 16.2721L15.0078 16.2806L15.0162 16.289L15.0245 16.2973L15.0328 16.3056L15.0411 16.3139L15.0493 16.3221L15.0575 16.3303L15.0657 16.3385L15.0738 16.3466L15.0819 16.3547L15.0899 16.3627L15.0979 16.3707L15.1059 16.3787L15.1138 16.3866L15.1217 16.3945L15.1295 16.4023L15.1373 16.4101L15.1451 16.4179L15.1528 16.4256L15.1605 16.4333L15.1682 16.441L15.1758 16.4486L15.1834 16.4562L15.1909 16.4637L15.1984 16.4712L15.2059 16.4787L15.2134 16.4862L15.2208 16.4936L15.2281 16.5009L15.2355 16.5083L15.2428 16.5155L15.25 16.5228L15.2572 16.53L15.2644 16.5372L15.2716 16.5444L15.2787 16.5515L15.2858 16.5586L15.2928 16.5656L15.2999 16.5727L15.3068 16.5796L15.3138 16.5866L15.3207 16.5935L15.3276 16.6004L15.3344 16.6072L15.3413 16.6141L15.3481 16.6208L15.3548 16.6276L15.3615 16.6343L15.3682 16.641L15.3749 16.6477L15.3815 16.6543L15.3881 16.6609L15.3946 16.6674L15.4012 16.674L15.4077 16.6804L15.4141 16.6869L15.4206 16.6933L15.427 16.6998L15.4333 16.7061L15.4397 16.7125L15.446 16.7188L15.4523 16.7251L15.4585 16.7313L15.4647 16.7375L15.4709 16.7437L15.4771 16.7499L15.4832 16.756L15.4893 16.7621L15.4954 16.7682L15.5014 16.7742L15.5075 16.7803L15.5135 16.7862L15.5194 16.7922L15.5253 16.7981L15.5313 16.804L15.5371 16.8099L15.543 16.8158L15.5488 16.8216L15.5546 16.8274L15.5604 16.8332L15.5661 16.8389L15.5718 16.8446L15.5775 16.8503L15.5832 16.856L15.5888 16.8616L15.5944 16.8672L15.6 16.8728L15.6055 16.8783L15.6111 16.8839L15.6166 16.8894L15.6221 16.8948L15.6275 16.9003L15.6329 16.9057L15.6383 16.9111L15.6437 16.9165L15.6491 16.9219L15.6544 16.9272L15.6597 16.9325L15.665 16.9378L15.6703 16.9431L15.6755 16.9483L15.6807 16.9535L15.6859 16.9587L15.6911 16.9639L15.6962 16.969L15.7013 16.9741L15.7064 16.9792L15.7115 16.9843L15.7166 16.9894L15.7216 16.9944L15.7266 16.9994L15.7316 17.0044L15.7366 17.0094L15.7415 17.0143L15.7464 17.0192L15.7513 17.0241L15.7562 17.029L15.7611 17.0339L15.7659 17.0387L15.7708 17.0436L15.7756 17.0484L15.7803 17.0531L15.7851 17.0579L15.7898 17.0626L15.7946 17.0674L15.7993 17.0721L15.804 17.0767L15.8086 17.0814L15.8133 17.0861L15.8179 17.0907L15.8225 17.0953L15.8271 17.0999L15.8317 17.1045L15.8362 17.109L15.8408 17.1136L15.8453 17.1181L15.8498 17.1226L15.8543 17.1271L15.8587 17.1315L15.8632 17.136L15.8676 17.1404L15.872 17.1448L15.8764 17.1492L15.8808 17.1536L15.8852 17.158L15.8896 17.1623L15.8939 17.1667L15.8982 17.171L15.9025 17.1753L15.9068 17.1796L15.9111 17.1839L15.9153 17.1881L15.9196 17.1924L15.9238 17.1966L15.928 17.2008L15.9322 17.205L15.9364 17.2092L15.9406 17.2134L15.9448 17.2176L15.9489 17.2217L15.9531 17.2258L15.9572 17.23L15.9613 17.2341L15.9654 17.2382L15.9695 17.2423L15.9735 17.2463L15.9776 17.2504L15.9816 17.2544L15.9857 17.2585L15.9897 17.2625L15.9937 17.2665L15.9977 17.2705L16.0017 17.2745L16.0057 17.2785L16.0096 17.2824L16.0136 17.2864L16.0175 17.2903L16.0215 17.2943L16.0254 17.2982L16.0293 17.3021L16.0332 17.306L16.0371 17.3099L16.041 17.3138L16.0449 17.3177L16.0487 17.3215L16.0526 17.3254L16.0564 17.3292L16.0603 17.3331L16.0641 17.3369L16.0679 17.3407L16.0717 17.3445L16.0755 17.3483L16.0793 17.3521L16.0831 17.3559L16.0869 17.3597L16.0907 17.3635L16.0945 17.3672L16.0982 17.371L16.102 17.3748L16.1057 17.3785L16.1095 17.3822L16.1132 17.386L16.1169 17.3897L16.1206 17.3934L16.1244 17.3971L16.1281 17.4009L16.1318 17.4046L16.1355 17.4083L16.1392 17.412L16.1428 17.4156L16.1465 17.4193L16.1502 17.423L16.1539 17.4267L16.1576 17.4303L16.1612 17.434L16.1649 17.4377L16.1685 17.4413L16.1722 17.445L16.1758 17.4486L16.1795 17.4523L16.1831 17.4559L16.1868 17.4596L16.1904 17.4632L16.1941 17.4668L16.1977 17.4705L16.2013 17.4741L16.205 17.4777L16.2086 17.4814L16.2122 17.485L16.2158 17.4886L16.2194 17.4922L16.2231 17.4959L16.2267 17.4995L16.2303 17.5031L16.2339 17.5067L16.2375 17.5103L16.2412 17.514L16.2448 17.5176L16.2484 17.5212L16.252 17.5248L16.2556 17.5284L16.2592 17.532L16.2629 17.5357L16.2665 17.5393L16.2701 17.5429L16.2737 17.5465L16.2773 17.5501L16.281 17.5538L16.2846 17.5574L16.2882 17.561L16.2918 17.5646L16.2955 17.5683L16.2991 17.5719L16.3027 17.5755L16.3064 17.5792L16.31 17.5828L16.3137 17.5865L16.3173 17.5901L16.321 17.5938L16.3246 17.5974L16.3283 17.6011L16.3319 17.6047L16.3356 17.6084L16.3393 17.6121L16.3429 17.6157L16.3466 17.6194L16.3503 17.6231L16.354 17.6268L16.3577 17.6305L16.3614 17.6342L16.3651 17.6379L16.3688 17.6416L16.3725 17.6453L16.3762 17.649L16.38 17.6528L16.3837 17.6565L16.3874 17.6602L16.3912 17.664L16.3949 17.6677L16.3987 17.6715L16.4025 17.6752L16.4062 17.679L16.41 17.6828L16.4138 17.6866L16.4176 17.6904L16.4214 17.6942L16.4252 17.698L16.429 17.7018L16.4329 17.7056L16.4367 17.7095L16.4405 17.7133L16.4444 17.7172L16.4483 17.721L16.4521 17.7249L16.456 17.7288L16.4599 17.7327L16.4638 17.7366C16.8153 18.0881 17.3851 18.0881 17.7366 17.7366C18.0881 17.3851 18.0881 16.8153 17.7366 16.4638L17.7327 16.4599L17.7288 16.456L17.7249 16.4521L17.721 16.4483L17.7172 16.4444L17.7133 16.4405L17.7095 16.4367L17.7056 16.4329L17.7018 16.429L17.698 16.4252L17.6942 16.4214L17.6904 16.4176L17.6866 16.4138L17.6828 16.41L17.679 16.4062L17.6752 16.4025L17.6715 16.3987L17.6677 16.3949L17.664 16.3912L17.6602 16.3874L17.6565 16.3837L17.6528 16.38L17.649 16.3762L17.6453 16.3725L17.6416 16.3688L17.6379 16.3651L17.6342 16.3614L17.6305 16.3577L17.6268 16.354L17.6231 16.3503L17.6194 16.3466L17.6157 16.3429L17.6121 16.3393L17.6084 16.3356L17.6047 16.3319L17.6011 16.3283L17.5974 16.3246L17.5938 16.321L17.5901 16.3173L17.5865 16.3137L17.5828 16.31L17.5792 16.3064L17.5755 16.3027L17.5719 16.2991L17.5683 16.2955L17.5646 16.2918L17.561 16.2882L17.5574 16.2846L17.5538 16.281L17.5501 16.2773L17.5465 16.2737L17.5429 16.2701L17.5393 16.2665L17.5357 16.2629L17.532 16.2592L17.5284 16.2556L17.5248 16.252L17.5212 16.2484L17.5176 16.2448L17.514 16.2412L17.5103 16.2375L17.5067 16.2339L17.5031 16.2303L17.4995 16.2267L17.4959 16.2231L17.4922 16.2194L17.4886 16.2158L17.485 16.2122L17.4814 16.2086L17.4777 16.205L17.4741 16.2013L17.4705 16.1977L17.4668 16.1941L17.4632 16.1904L17.4596 16.1868L17.4559 16.1831L17.4523 16.1795L17.4486 16.1758L17.445 16.1722L17.4413 16.1685L17.4377 16.1649L17.434 16.1612L17.4303 16.1576L17.4267 16.1539L17.423 16.1502L17.4193 16.1465L17.4156 16.1428L17.412 16.1392L17.4083 16.1355L17.4046 16.1318L17.4009 16.1281L17.3971 16.1244L17.3934 16.1206L17.3897 16.1169L17.386 16.1132L17.3822 16.1095L17.3785 16.1057L17.3748 16.102L17.371 16.0982L17.3672 16.0945L17.3635 16.0907L17.3597 16.0869L17.3559 16.0831L17.3521 16.0793L17.3483 16.0755L17.3445 16.0717L17.3407 16.0679L17.3369 16.0641L17.3331 16.0603L17.3292 16.0564L17.3254 16.0526L17.3215 16.0487L17.3177 16.0449L17.3138 16.041L17.3099 16.0371L17.306 16.0332L17.3021 16.0293L17.2982 16.0254L17.2943 16.0215L17.2903 16.0175L17.2864 16.0136L17.2824 16.0096L17.2785 16.0057L17.2745 16.0017L17.2705 15.9977L17.2665 15.9937L17.2625 15.9897L17.2585 15.9857L17.2544 15.9816L17.2504 15.9776L17.2463 15.9735L17.2423 15.9695L17.2382 15.9654L17.2341 15.9613L17.23 15.9572L17.2258 15.9531L17.2217 15.9489L17.2176 15.9448L17.2134 15.9406L17.2092 15.9364L17.205 15.9322L17.2008 15.928L17.1966 15.9238L17.1924 15.9196L17.1881 15.9153L17.1839 15.9111L17.1796 15.9068L17.1753 15.9025L17.171 15.8982L17.1667 15.8939L17.1623 15.8896L17.158 15.8852L17.1536 15.8808L17.1492 15.8764L17.1448 15.872L17.1404 15.8676L17.136 15.8632L17.1315 15.8587L17.1271 15.8543L17.1226 15.8498L17.1181 15.8453L17.1136 15.8408L17.109 15.8362L17.1045 15.8317L17.0999 15.8271L17.0953 15.8225L17.0907 15.8179L17.0861 15.8133L17.0814 15.8086L17.0767 15.804L17.0721 15.7993L17.0674 15.7946L17.0626 15.7898L17.0579 15.7851L17.0531 15.7803L17.0484 15.7756L17.0436 15.7708L17.0387 15.7659L17.0339 15.7611L17.029 15.7562L17.0241 15.7513L17.0192 15.7464L17.0143 15.7415L17.0094 15.7366L17.0044 15.7316L16.9994 15.7266L16.9944 15.7216L16.9894 15.7166L16.9843 15.7115L16.9792 15.7064L16.9741 15.7013L16.969 15.6962L16.9639 15.6911L16.9587 15.6859L16.9535 15.6807L16.9483 15.6755L16.9431 15.6703L16.9378 15.665L16.9325 15.6597L16.9272 15.6544L16.9219 15.6491L16.9165 15.6437L16.9111 15.6383L16.9057 15.6329L16.9003 15.6275L16.8948 15.6221L16.8894 15.6166L16.8839 15.6111L16.8783 15.6055L16.8728 15.6L16.8672 15.5944L16.8616 15.5888L16.856 15.5832L16.8503 15.5775L16.8446 15.5718L16.8389 15.5661L16.8332 15.5604L16.8274 15.5546L16.8216 15.5488L16.8158 15.543L16.8099 15.5371L16.804 15.5313L16.7981 15.5253L16.7922 15.5194L16.7862 15.5135L16.7803 15.5075L16.7742 15.5014L16.7682 15.4954L16.7621 15.4893L16.756 15.4832L16.7499 15.4771L16.7437 15.4709L16.7375 15.4647L16.7313 15.4585L16.7251 15.4523L16.7188 15.446L16.7125 15.4397L16.7061 15.4333L16.6998 15.427L16.6933 15.4206L16.6869 15.4141L16.6804 15.4077L16.674 15.4012L16.6674 15.3946L16.6609 15.3881L16.6543 15.3815L16.6477 15.3749L16.641 15.3682L16.6343 15.3615L16.6276 15.3548L16.6208 15.3481L16.6141 15.3413L16.6072 15.3344L16.6004 15.3276L16.5935 15.3207L16.5866 15.3138L16.5796 15.3068L16.5727 15.2999L16.5656 15.2928L16.5586 15.2858L16.5515 15.2787L16.5444 15.2716L16.5372 15.2644L16.53 15.2572L16.5228 15.25L16.5155 15.2428L16.5083 15.2355L16.5009 15.2281L16.4936 15.2208L16.4862 15.2134L16.4787 15.2059L16.4712 15.1984L16.4637 15.1909L16.4562 15.1834L16.4486 15.1758L16.441 15.1682L16.4333 15.1605L16.4256 15.1528L16.4179 15.1451L16.4101 15.1373L16.4023 15.1295L16.3945 15.1217L16.3866 15.1138L16.3787 15.1059L16.3707 15.0979L16.3627 15.0899L16.3547 15.0819L16.3466 15.0738L16.3385 15.0657L16.3303 15.0575L16.3221 15.0493L16.3139 15.0411L16.3056 15.0328L16.2973 15.0245L16.289 15.0162L16.2806 15.0078L16.2721 14.9994L16.2637 14.9909L16.2552 14.9824L16.2466 14.9738L16.238 14.9652L16.2294 14.9566L16.2207 14.9479L16.212 14.9392L16.2032 14.9304L16.1944 14.9216L16.1856 14.9128L16.1767 14.9039L16.1677 14.895L16.1588 14.886L16.1498 14.877L16.1407 14.8679L16.1316 14.8588L16.1225 14.8497L16.1133 14.8405L16.104 14.8312L16.0948 14.822L16.0854 14.8126L16.0761 14.8033L16.0667 14.7939L16.0572 14.7844L16.0477 14.7749L16.0382 14.7654L16.0286 14.7558L16.019 14.7462L16.0093 14.7365L15.9996 14.7268L15.9898 14.717L15.98 14.7072L15.9701 14.6973L15.9602 14.6874L15.9503 14.6775L15.9403 14.6675L15.9302 14.6574L15.9201 14.6473L15.91 14.6372L15.8998 14.627L15.8896 14.6168L15.8793 14.6065L15.869 14.5962L15.8586 14.5858L15.8482 14.5754L15.8377 14.5649L15.8272 14.5544L15.8166 14.5438L15.806 14.5332L15.7953 14.5225L15.7846 14.5118L15.7738 14.501L15.763 14.4902L15.7521 14.4794L15.7412 14.4684L15.7303 14.4575L15.7193 14.4465L15.7082 14.4354L15.6971 14.4243L15.6859 14.4131L15.6747 14.4019L15.6634 14.3906L15.6521 14.3793L15.6407 14.3679L15.6293 14.3565L15.6178 14.3451L15.6063 14.3335L15.5947 14.322L15.5831 14.3103L15.5714 14.2986L15.5597 14.2869L15.5479 14.2751L15.5361 14.2633L15.5242 14.2514L15.5122 14.2395L15.5002 14.2275L15.4882 14.2154L15.4761 14.2033L15.4639 14.1911L15.4517 14.1789L15.4395 14.1667L15.4271 14.1543L15.4148 14.142L15.4023 14.1295L15.3898 14.1171L15.3773 14.1045L15.3647 14.0919L15.3521 14.0793L15.3394 14.0666L15.3266 14.0538L15.3138 14.041L15.3009 14.0281L15.288 14.0152L15.275 14.0022L15.262 13.9892L15.2489 13.9761L15.2357 13.9629L15.2225 13.9497L15.2092 13.9364L15.1959 13.9231L15.1825 13.9097L15.1691 13.8963L15.1556 13.8828L15.142 13.8692L15.1284 13.8556L15.1147 13.8419L15.101 13.8282L15.0872 13.8144L15.0733 13.8006L15.0594 13.7866L15.0455 13.7727L15.0314 13.7586L15.0173 13.7446L15.0032 13.7304L14.989 13.7162L14.9747 13.7019L14.9604 13.6876L14.946 13.6732L14.9316 13.6588L14.9171 13.6443L14.9025 13.6297L14.8878 13.6151L14.8732 13.6004L14.8584 13.5856L14.8436 13.5708L14.8287 13.5559L14.8138 13.541L14.7988 13.526L14.7837 13.5109L14.7686 13.4958L14.7534 13.4806L14.7381 13.4653L14.7228 13.45L14.7074 13.4347L14.692 13.4192L14.6765 13.4037L14.6609 13.3881L14.6453 13.3725L14.6296 13.3568L14.6138 13.3411L14.598 13.3252L14.5821 13.3093L14.5662 13.2934L14.5502 13.2774L14.5341 13.2613L14.5179 13.2451L14.5017 13.2289L14.4854 13.2126L14.4691 13.1963L14.4527 13.1799L14.4362 13.1634L14.4197 13.1469L14.403 13.1303L14.3864 13.1136L14.3696 13.0968L14.3528 13.08L14.3359 13.0632L14.319 13.0462L14.302 13.0292L14.2849 13.0121L14.2678 12.995L14.2505 12.9778L14.2333 12.9605L14.2159 12.9431L14.1985 12.9257L14.181 12.9082L14.1635 12.8907L14.1458 12.873L14.1281 12.8553L14.1104 12.8376L14.0925 12.8197L14.0746 12.8018L14.0567 12.7839L14.0386 12.7658L14.0205 12.7477L14.0023 12.7295L13.9841 12.7113L13.9657 12.693L13.9474 12.6746L13.9289 12.6561L13.9104 12.6376L13.8917 12.619L13.8731 12.6003L13.8543 12.5815L13.8355 12.5627L13.8166 12.5438L13.7976 12.5248L13.7786 12.5058L13.7595 12.4867L13.7403 12.4675L13.721 12.4482L13.7017 12.4289L13.6823 12.4095L13.6628 12.39L13.6433 12.3705L13.6237 12.3509L13.604 12.3312L13.5842 12.3114L13.5643 12.2916L13.5444 12.2716L13.5244 12.2516L13.5172 12.2444C14.3226 11.174 14.8 9.84274 14.8 8.4C14.8 4.86538 11.9346 2 8.4 2Z" fill="#93989E"/>
<script xmlns=""/></svg>